<?xml version="1.0" encoding="UTF-8" standalone="no"?>
<!-- Created with Inkscape (http://www.inkscape.org/) -->

<svg
   width="2048"
   height="2048"
   viewBox="0 0 541.86668 541.86668"
   version="1.1"
   id="svg1"
   inkscape:version="1.3 (0e150ed, 2023-07-21)"
   sodipodi:docname="dj-logo-grid.svg"
   inkscape:export-filename="../png/dj-logo-grid-green.png"
   inkscape:export-xdpi="96"
   inkscape:export-ydpi="96"
   xmlns:inkscape="http://www.inkscape.org/namespaces/inkscape"
   xmlns:sodipodi="http://sodipodi.sourceforge.net/DTD/sodipodi-0.dtd"
   xmlns:xlink="http://www.w3.org/1999/xlink"
   xmlns="http://www.w3.org/2000/svg"
   xmlns:svg="http://www.w3.org/2000/svg">
  <sodipodi:namedview
     id="namedview1"
     pagecolor="#ffffff"
     bordercolor="#000000"
     borderopacity="0.25"
     inkscape:showpageshadow="2"
     inkscape:pageopacity="0.0"
     inkscape:pagecheckerboard="false"
     inkscape:deskcolor="#d1d1d1"
     inkscape:document-units="px"
     showborder="true"
     labelstyle="default"
     inkscape:zoom="0.059039011"
     inkscape:cx="364.16599"
     inkscape:cy="804.55278"
     inkscape:window-width="1280"
     inkscape:window-height="692"
     inkscape:window-x="0"
     inkscape:window-y="23"
     inkscape:window-maximized="1"
     inkscape:current-layer="layer2"
     showguides="true" />
  <defs
     id="defs1">
    <linearGradient
       id="linearGradient6"
       inkscape:collect="always">
      <stop
         style="stop-color:#beef69;stop-opacity:1;"
         offset="0"
         id="stop5" />
      <stop
         style="stop-color:#beef69;stop-opacity:0;"
         offset="1"
         id="stop8" />
    </linearGradient>
    <linearGradient
       id="linearGradient4"
       inkscape:collect="always">
      <stop
         style="stop-color:#84cc16;stop-opacity:1;"
         offset="0"
         id="stop3" />
      <stop
         style="stop-color:#bef264;stop-opacity:1;"
         offset="1"
         id="stop4" />
    </linearGradient>
    <linearGradient
       id="linearGradient119"
       inkscape:collect="always">
      <stop
         style="stop-color:#000000;stop-opacity:1;"
         offset="0"
         id="stop119" />
      <stop
         style="stop-color:#000000;stop-opacity:0;"
         offset="1"
         id="stop120" />
    </linearGradient>
    <linearGradient
       id="linearGradient114"
       inkscape:collect="always">
      <stop
         style="stop-color:#1a2e05;stop-opacity:1;"
         offset="0"
         id="stop113" />
      <stop
         style="stop-color:#000000;stop-opacity:0;"
         offset="1"
         id="stop114" />
    </linearGradient>
    <linearGradient
       id="linearGradient112"
       inkscape:collect="always">
      <stop
         style="stop-color:#4d7c0f;stop-opacity:1;"
         offset="0"
         id="stop111" />
      <stop
         style="stop-color:#beef69;stop-opacity:1;"
         offset="1"
         id="stop2" />
    </linearGradient>
    <linearGradient
       id="linearGradient101"
       inkscape:collect="always">
      <stop
         style="stop-color:#1a2e05;stop-opacity:0.94132656;"
         offset="0"
         id="stop101" />
      <stop
         style="stop-color:#000000;stop-opacity:0;"
         offset="1"
         id="stop102" />
    </linearGradient>
    <linearGradient
       inkscape:collect="always"
       xlink:href="#linearGradient101"
       id="linearGradient100"
       x1="68.743446"
       y1="447.52252"
       x2="67.849838"
       y2="145.20712"
       gradientUnits="userSpaceOnUse" />
    <linearGradient
       inkscape:collect="always"
       xlink:href="#linearGradient114"
       id="linearGradient104"
       x1="280.90598"
       y1="233.65327"
       x2="43.765034"
       y2="499.06857"
       gradientUnits="userSpaceOnUse" />
    <linearGradient
       inkscape:collect="always"
       xlink:href="#linearGradient112"
       id="linearGradient110"
       x1="6.3500004"
       y1="535.51666"
       x2="466.97668"
       y2="93.250122"
       gradientUnits="userSpaceOnUse" />
    <linearGradient
       inkscape:collect="always"
       xlink:href="#linearGradient4"
       id="linearGradient118"
       x1="6.3500004"
       y1="59.42609"
       x2="535.51666"
       y2="59.42609"
       gradientUnits="userSpaceOnUse" />
    <linearGradient
       inkscape:collect="always"
       xlink:href="#linearGradient119"
       id="linearGradient120"
       x1="6.3500002"
       y1="59.42609"
       x2="429.84427"
       y2="59.42609"
       gradientUnits="userSpaceOnUse" />
    <linearGradient
       inkscape:collect="always"
       xlink:href="#linearGradient6"
       id="linearGradient3"
       x1="59.26667"
       y1="218.01666"
       x2="59.26667"
       y2="270.93335"
       gradientUnits="userSpaceOnUse" />
  </defs>
  <g
     inkscape:groupmode="layer"
     id="layer3"
     inkscape:label="Layer 2"
     style="display:none">
    <path
       style="opacity:1;fill:url(#linearGradient118);stroke:none;stroke-width:1.05833"
       d="M 112.18334,112.18334 H 535.51668 V 6.66884 H 6.3500002 v 105.5145 z"
       id="path117" />
  </g>
  <g
     inkscape:groupmode="layer"
     id="g119"
     inkscape:label="Layer 2"
     style="display:none;opacity:0.331;fill:url(#linearGradient120)">
    <path
       style="opacity:1;fill:url(#linearGradient120);stroke:none;stroke-width:1.05833"
       d="M 112.18334,112.18334 H 535.51668"
       id="path118" />
    <path
       style="opacity:1;fill:url(#linearGradient120);stroke:none;stroke-width:1.05833"
       d="M 112.18334,112.18334 H 535.51668 V 6.66884 H 6.3500002 v 105.5145 z"
       id="path119" />
  </g>
  <g
     inkscape:label="Layer 1"
     inkscape:groupmode="layer"
     id="layer1"
     style="display:inline">
    <path
       id="path54"
       style="opacity:1;fill:url(#linearGradient110);fill-opacity:1;stroke:none;stroke-width:1.05833"
       d="M 6.3500002,6.3500002 V 112.18334 218.01667 270.93334 A 264.58334,264.58334 0 0 1 6.6197511,259.59708 264.58334,264.58334 0 0 0 6.3500002,270.93334 264.58334,264.58334 0 0 0 6.6197511,282.2696 264.58334,264.58334 0 0 1 6.3500002,270.93334 v 52.91667 105.83333 105.83334 H 112.18334 218.01667 270.93334 a 264.58334,264.58334 0 0 1 -11.33626,-0.26975 264.58334,264.58334 0 0 0 11.33626,0.26975 264.58334,264.58334 0 0 0 37.65403,-2.69286 264.58334,264.58334 0 0 0 15.26264,-3.32021 264.58334,264.58334 0 0 0 21.62504,-4.70462 264.58334,264.58334 0 0 0 35.36993,-13.19196 264.58334,264.58334 0 0 0 33.13286,-18.09192 264.58334,264.58334 0 0 0 15.7055,-11.75691 264.58334,264.58334 0 0 0 14.5154,-10.866 264.58334,264.58334 0 0 0 26.69346,-26.69346 264.58334,264.58334 0 0 0 10.866,-14.5154 264.58334,264.58334 0 0 0 11.75691,-15.7055 264.58334,264.58334 0 0 0 18.09192,-33.13286 264.58334,264.58334 0 0 0 13.19196,-35.36993 264.58334,264.58334 0 0 0 4.70462,-21.62504 264.58334,264.58334 0 0 0 3.32021,-15.26264 264.58334,264.58334 0 0 0 2.69286,-37.65403 264.58334,264.58334 0 0 0 -0.31884,-12.98267 264.58334,264.58334 0 0 0 -0.95498,-12.95115 264.58334,264.58334 0 0 0 -1.59009,-12.88862 264.58334,264.58334 0 0 0 -2.22002,-12.79508 264.58334,264.58334 0 0 0 -0.29197,-1.29915 264.58334,264.58334 0 0 0 -2.55333,-11.37191 264.58334,264.58334 0 0 0 -3.46387,-12.51604 264.58334,264.58334 0 0 0 -4.07314,-12.33103 264.58334,264.58334 0 0 0 -4.67413,-12.11605 264.58334,264.58334 0 0 0 -5.26273,-11.87215 264.58334,264.58334 0 0 0 -5.8384,-11.59981 264.58334,264.58334 0 0 0 -6.40116,-11.29957 264.58334,264.58334 0 0 0 -6.9479,-10.97142 264.58334,264.58334 0 0 0 -7.47758,-10.61744 264.58334,264.58334 0 0 0 -0.8878,-1.13791 264.58334,264.58334 0 0 0 -7.10189,-9.09971 264.58334,264.58334 0 0 0 -8.48217,-9.833506 264.58334,264.58334 0 0 0 -8.9545,-9.405627 264.58334,264.58334 0 0 0 -9.40562,-8.954493 264.58334,264.58334 0 0 0 -9.83351,-8.48217 264.58334,264.58334 0 0 0 -9.09971,-7.101892 264.58334,264.58334 0 0 0 -1.13791,-0.887801 264.58334,264.58334 0 0 0 -10.61744,-7.47758 A 264.58334,264.58334 0 0 0 406.95657,43.992665 264.58334,264.58334 0 0 0 395.657,37.591505 264.58334,264.58334 0 0 0 384.05719,31.752585 264.58334,264.58334 0 0 0 372.18504,26.490373 264.58334,264.58334 0 0 0 360.06899,21.81624 264.58334,264.58334 0 0 0 347.73796,17.743103 264.58334,264.58334 0 0 0 335.22192,14.279232 264.58334,264.58334 0 0 0 323.85001,11.7259 264.58334,264.58334 0 0 0 322.55086,11.433928 264.58334,264.58334 0 0 0 309.75578,9.2139081 264.58334,264.58334 0 0 0 296.86716,7.6238242 264.58334,264.58334 0 0 0 283.91601,6.6688438 264.58334,264.58334 0 0 0 270.93334,6.3500002 264.58334,264.58334 0 0 0 259.59708,6.6197511 264.58334,264.58334 0 0 1 270.93334,6.3500002 H 218.01667 112.18334 Z M 256.26137,6.7985516 a 264.58334,264.58334 0 0 0 -8.39174,0.5999634 264.58334,264.58334 0 0 1 8.39174,-0.5999634 z m -11.7259,0.8986532 A 264.58334,264.58334 0 0 0 233.27931,9.0428591 264.58334,264.58334 0 0 0 218.01667,12.36307 264.58334,264.58334 0 0 1 233.27931,9.0428591 264.58334,264.58334 0 0 1 244.53547,7.6972048 Z M 89.286542,78.593654 a 264.58334,264.58334 0 0 0 -2.426209,2.340943 264.58334,264.58334 0 0 1 2.426209,-2.340943 z m -8.351945,8.266679 a 264.58334,264.58334 0 0 0 -2.340943,2.426209 264.58334,264.58334 0 0 1 2.340943,-2.426209 z m 31.248743,25.323007 h 105.83333 52.91667 a 158.75,158.75 0 0 1 9.96787,0.31316 158.75,158.75 0 0 1 9.92859,0.93844 158.75,158.75 0 0 1 9.85056,1.56011 158.75,158.75 0 0 1 9.73274,2.17558 158.75,158.75 0 0 1 9.57668,2.78226 158.75,158.75 0 0 1 3.86023,1.39009 158.75,158.75 0 0 1 5.52318,1.98851 158.75,158.75 0 0 1 9.15241,3.96048 158.75,158.75 0 0 1 8.88628,4.52789 158.75,158.75 0 0 1 8.58397,5.07618 158.75,158.75 0 0 1 8.24859,5.60586 158.75,158.75 0 0 1 7.88014,6.11229 158.75,158.75 0 0 1 7.48068,6.59546 158.75,158.75 0 0 1 7.05177,7.05177 158.75,158.75 0 0 1 6.59546,7.48068 158.75,158.75 0 0 1 6.11229,7.88014 158.75,158.75 0 0 1 5.60586,8.24859 158.75,158.75 0 0 1 5.07618,8.58397 158.75,158.75 0 0 1 4.52789,8.88628 158.75,158.75 0 0 1 3.96048,9.15241 158.75,158.75 0 0 1 1.98851,5.52318 158.75,158.75 0 0 1 1.39009,3.86023 158.75,158.75 0 0 1 2.78226,9.57668 158.75,158.75 0 0 1 2.17558,9.73274 158.75,158.75 0 0 1 1.56011,9.85056 158.75,158.75 0 0 1 0.93844,9.92859 158.75,158.75 0 0 1 0.31316,9.71827 v 0.2496 0.23461 a 158.75,158.75 0 0 1 -2.41174,27.33218 158.75,158.75 0 0 1 -6.79235,25.34988 158.75,158.75 0 0 1 -0.36948,1.37924 158.75,158.75 0 0 1 -11.6949,25.07909 158.75,158.75 0 0 1 -15.8719,22.66735 158.75,158.75 0 0 1 -19.56728,19.56728 158.75,158.75 0 0 1 -22.66735,15.8719 158.75,158.75 0 0 1 -25.07909,11.6949 158.75,158.75 0 0 1 -1.37924,0.36948 158.75,158.75 0 0 1 -25.34988,6.79235 158.75,158.75 0 0 1 -27.56679,2.41174 158.75,158.75 0 0 1 -27.56679,-2.41174 158.75,158.75 0 0 1 -25.34988,-6.79235 158.75,158.75 0 0 1 -1.37924,-0.36948 158.75,158.75 0 0 1 -25.07909,-11.6949 158.75,158.75 0 0 1 -22.66735,-15.8719 158.75,158.75 0 0 1 -19.56728,-19.56728 158.75,158.75 0 0 1 -15.8719,-22.66735 158.75,158.75 0 0 1 -11.6949,-25.07909 158.75,158.75 0 0 1 -0.36948,-1.37924 158.75,158.75 0 0 1 -6.79235,-25.34988 158.75,158.75 0 0 1 -2.41174,-27.56679 V 218.01667 Z M 12.36307,218.01667 A 264.58334,264.58334 0 0 0 9.0428591,233.27931 264.58334,264.58334 0 0 0 7.6972048,244.53547 264.58334,264.58334 0 0 1 9.0428591,233.27931 264.58334,264.58334 0 0 1 12.36307,218.01667 Z m -4.964555,29.85296 a 264.58334,264.58334 0 0 0 -0.5999634,8.39174 264.58334,264.58334 0 0 1 0.5999634,-8.39174 z m -0.5999634,37.73568 a 264.58334,264.58334 0 0 0 0.5999634,8.39174 264.58334,264.58334 0 0 1 -0.5999634,-8.39174 z m 0.8986532,11.7259 A 264.58334,264.58334 0 0 0 9.0428591,308.58737 264.58334,264.58334 0 0 0 12.36307,323.85001 264.58334,264.58334 0 0 1 9.0428591,308.58737 264.58334,264.58334 0 0 1 7.6972048,297.33121 Z M 78.593654,452.58014 a 264.58334,264.58334 0 0 0 2.340943,2.42621 264.58334,264.58334 0 0 1 -2.340943,-2.42621 z m 8.266679,8.35194 a 264.58334,264.58334 0 0 0 2.426209,2.34095 264.58334,264.58334 0 0 1 -2.426209,-2.34095 z m 131.156337,68.57153 a 264.58334,264.58334 0 0 0 15.26264,3.32021 264.58334,264.58334 0 0 0 11.25616,1.34566 264.58334,264.58334 0 0 1 -11.25616,-1.34566 264.58334,264.58334 0 0 1 -15.26264,-3.32021 z m 29.85296,4.96456 a 264.58334,264.58334 0 0 0 8.39174,0.59996 264.58334,264.58334 0 0 1 -8.39174,-0.59996 z"
       inkscape:label="path54" />
  </g>
  <g
     inkscape:groupmode="layer"
     id="layer2"
     inkscape:label="Layer 3"
     style="display:inline;opacity:0.225">
    <path
       style="fill:url(#linearGradient3);stroke-width:1.05833;fill-opacity:1"
       d="m 112.18334,218.01667 v 52.91667 H 6.3500002 v -52.91667 z"
       id="path3" />
  </g>
  <g
     inkscape:label="Layer 1 copy"
     inkscape:groupmode="layer"
     id="g92"
     style="display:inline;opacity:1">
    <path
       id="path71"
       style="opacity:1;fill:url(#linearGradient100);fill-opacity:1;stroke:none;stroke-width:1.05833"
       d="M 6.3500002,6.3500002 V 112.18334 218.01667 H 12.36307 112.18334 V 112.18334 60.108477 6.3500002 Z M 89.286542,78.593654 a 264.58334,264.58334 0 0 0 -2.426209,2.340943 264.58334,264.58334 0 0 1 2.426209,-2.340943 z m -8.351945,8.266679 a 264.58334,264.58334 0 0 0 -2.340943,2.426209 264.58334,264.58334 0 0 1 2.340943,-2.426209 z" />
    <path
       id="path76"
       style="opacity:1;fill:url(#linearGradient104);fill-opacity:1;stroke:none;stroke-width:1.05833"
       d="m 6.3500002,270.93334 v 52.91667 105.83333 105.83334 H 112.18334 218.01667 270.93334 a 264.58334,264.58334 0 0 1 -37.65403,-2.69286 264.58334,264.58334 0 0 1 -15.26264,-3.32021 264.58334,264.58334 0 0 1 -21.62504,-4.70462 A 264.58334,264.58334 0 0 1 161.02118,511.60703 264.58334,264.58334 0 0 1 127.88884,493.51511 264.58334,264.58334 0 0 1 112.18334,481.7582 264.58334,264.58334 0 0 1 97.667943,470.8922 264.58334,264.58334 0 0 1 70.974481,444.19874 264.58334,264.58334 0 0 1 60.108477,429.68334 264.58334,264.58334 0 0 1 48.351572,413.97784 264.58334,264.58334 0 0 1 30.259652,380.84498 264.58334,264.58334 0 0 1 17.067692,345.47505 264.58334,264.58334 0 0 1 12.36307,323.85001 264.58334,264.58334 0 0 1 9.0428591,308.58737 264.58334,264.58334 0 0 1 6.3500002,270.93334 Z" />
  </g>
</svg>
